<svg xmlns="http://www.w3.org/2000/svg" xmlns:xlink="http://www.w3.org/1999/xlink" width="840" height="517.6199999999999"><rect width="840" height="517.6199999999999" rx="0" ry="0" class="a"></rect><svg height="477.61999999999995" viewBox="0 0 80 47.76199999999999" width="800" x="20" xmlns="http://www.w3.org/2000/svg" xmlns:xlink="http://www.w3.org/1999/xlink" y="20"><style>.a{fill:rgb(247,247,247)}.b{font-family:'Fira Code',Monaco,Consolas,Menlo,'Bitstream Vera Sans Mono','Powerline Symbols',monospace}.c{fill:transparent}.d{fill:rgb(133,153,0);white-space:pre}.e{fill:rgb(101,123,131);white-space:pre}.f{fill:rgb(38,139,210);white-space:pre}.g{fill:rgb(38,139,210);font-weight:bold;white-space:pre}.h{fill:rgb(38,139,210);font-style:italic;white-space:pre}</style><g font-family="&#x27;Fira Code&#x27;,Monaco,Consolas,Menlo,&#x27;Bitstream Vera Sans Mono&#x27;,&#x27;Powerline Symbols&#x27;,monospace" font-size="1.67" class="b"><defs><symbol id="a"><rect height="22" width="80" x="0" y="0" class="c"></rect></symbol></defs><rect height="47.76199999999999" width="80" class="a"></rect><svg x="0" y="0" width="80"><svg x="0"><use xlink:href="#a"></use><text font-size="1.67" x="0" y="1.67" class="d">✔</text><text font-size="1.67" x="2.004" y="1.67" class="e">Found</text><text font-size="1.67" x="8.016" y="1.67" class="e">git</text><text font-size="1.67" x="12.024" y="1.67" class="e">repository</text><text font-size="1.67" x="23.045999999999996" y="1.67" class="e">at</text><text font-size="1.67" x="26.052" y="1.67" class="f">/private/tmp/cli</text><text font-size="1.67" x="42.083999999999996" y="1.67" class="e">.</text><text font-size="1.67" x="0" y="3.8409999999999997" class="d">✔</text><text font-size="1.67" x="2.004" y="3.8409999999999997" class="e">Found</text><text font-size="1.67" x="8.016" y="3.8409999999999997" class="e">GitHub</text><text font-size="1.67" x="15.029999999999998" y="3.8409999999999997" class="e">PAT.</text><text font-size="1.67" x="0" y="8.183" class="e">Available</text><text font-size="1.67" x="10.02" y="8.183" class="e">platforms</text><text font-size="1.67" x="20.04" y="8.183" class="e">(see</text><text font-size="1.67" x="25.05" y="8.183" class="e">`rhub2::rhub_platforms()`</text><text font-size="1.67" x="51.102" y="8.183" class="e">for</text><text font-size="1.67" x="55.10999999999999" y="8.183" class="e">details):</text><text font-size="1.67" x="1.002" y="12.525" class="e">1</text><text font-size="1.67" x="3.006" y="12.525" class="e">[VM]</text><text font-size="1.67" x="8.016" y="12.525" class="g">linux</text><text font-size="1.67" x="23.045999999999996" y="12.525" class="e">R-*</text><text font-size="1.67" x="27.054" y="12.525" class="e">(any</text><text font-size="1.67" x="32.064" y="12.525" class="e">version)</text><text font-size="1.67" x="61.12199999999999" y="12.525" class="e">ubuntu-latest</text><text font-size="1.67" x="75.14999999999999" y="12.525" class="e">on</text><text font-size="1.67" x="78.15599999999999" y="12.525" class="e">G…</text><text font-size="1.67" x="1.002" y="14.696" class="e">2</text><text font-size="1.67" x="3.006" y="14.696" class="e">[VM]</text><text font-size="1.67" x="8.016" y="14.696" class="g">macos</text><text font-size="1.67" x="23.045999999999996" y="14.696" class="e">R-*</text><text font-size="1.67" x="27.054" y="14.696" class="e">(any</text><text font-size="1.67" x="32.064" y="14.696" class="e">version)</text><text font-size="1.67" x="61.12199999999999" y="14.696" class="e">macos-latest</text><text font-size="1.67" x="74.148" y="14.696" class="e">on</text><text font-size="1.67" x="77.154" y="14.696" class="e">Gi…</text><text font-size="1.67" x="1.002" y="16.866999999999997" class="e">3</text><text font-size="1.67" x="3.006" y="16.866999999999997" class="e">[VM]</text><text font-size="1.67" x="8.016" y="16.866999999999997" class="g">windows</text><text font-size="1.67" x="23.045999999999996" y="16.866999999999997" class="e">R-*</text><text font-size="1.67" x="27.054" y="16.866999999999997" class="e">(any</text><text font-size="1.67" x="32.064" y="16.866999999999997" class="e">version)</text><text font-size="1.67" x="61.12199999999999" y="16.866999999999997" class="e">windows-latest</text><text font-size="1.67" x="76.15199999999999" y="16.866999999999997" class="e">on</text><text font-size="1.67" x="79.158" y="16.866999999999997" class="e">…</text><text font-size="1.67" x="1.002" y="19.037999999999997" class="e">4</text><text font-size="1.67" x="3.006" y="19.037999999999997" class="e">[CT]</text><text font-size="1.67" x="8.016" y="19.037999999999997" class="g">atlas</text><text font-size="1.67" x="23.045999999999996" y="19.037999999999997" class="e">R-devel</text><text font-size="1.67" x="31.061999999999998" y="19.037999999999997" class="e">(2023-05-27</text><text font-size="1.67" x="43.086" y="19.037999999999997" class="e">r84465)</text><text font-size="1.67" x="61.12199999999999" y="19.037999999999997" class="e">Fedora</text><text font-size="1.67" x="68.136" y="19.037999999999997" class="e">Linux</text><text font-size="1.67" x="74.148" y="19.037999999999997" class="e">36</text><text font-size="1.67" x="77.154" y="19.037999999999997" class="e">(C…</text><text font-size="1.67" x="1.002" y="21.209000000000003" class="e">5</text><text font-size="1.67" x="3.006" y="21.209000000000003" class="e">[CT]</text><text font-size="1.67" x="8.016" y="21.209000000000003" class="g">clang-asan</text><text font-size="1.67" x="23.045999999999996" y="21.209000000000003" class="e">R-devel</text><text font-size="1.67" x="31.061999999999998" y="21.209000000000003" class="e">(2023-05-27</text><text font-size="1.67" x="43.086" y="21.209000000000003" class="e">r84465)</text><text font-size="1.67" x="61.12199999999999" y="21.209000000000003" class="e">Ubuntu</text><text font-size="1.67" x="68.136" y="21.209000000000003" class="e">22.04.2</text><text font-size="1.67" x="76.15199999999999" y="21.209000000000003" class="e">LTS</text><text font-size="1.67" x="1.002" y="23.380000000000003" class="e">6</text><text font-size="1.67" x="3.006" y="23.380000000000003" class="e">[CT]</text><text font-size="1.67" x="8.016" y="23.380000000000003" class="g">clang16</text><text font-size="1.67" x="23.045999999999996" y="23.380000000000003" class="e">R-devel</text><text font-size="1.67" x="31.061999999999998" y="23.380000000000003" class="e">(2023-05-27</text><text font-size="1.67" x="43.086" y="23.380000000000003" class="e">r84465)</text><text font-size="1.67" x="61.12199999999999" y="23.380000000000003" class="e">Ubuntu</text><text font-size="1.67" x="68.136" y="23.380000000000003" class="e">22.04.2</text><text font-size="1.67" x="76.15199999999999" y="23.380000000000003" class="e">LTS</text><text font-size="1.67" x="1.002" y="25.550999999999995" class="e">7</text><text font-size="1.67" x="3.006" y="25.550999999999995" class="e">[CT]</text><text font-size="1.67" x="8.016" y="25.550999999999995" class="g">gcc13</text><text font-size="1.67" x="23.045999999999996" y="25.550999999999995" class="e">R-devel</text><text font-size="1.67" x="31.061999999999998" y="25.550999999999995" class="e">(2023-05-27</text><text font-size="1.67" x="43.086" y="25.550999999999995" class="e">r84465)</text><text font-size="1.67" x="61.12199999999999" y="25.550999999999995" class="e">Fedora</text><text font-size="1.67" x="68.136" y="25.550999999999995" class="e">Linux</text><text font-size="1.67" x="74.148" y="25.550999999999995" class="e">38</text><text font-size="1.67" x="77.154" y="25.550999999999995" class="e">(C…</text><text font-size="1.67" x="1.002" y="27.722" class="e">8</text><text font-size="1.67" x="3.006" y="27.722" class="e">[CT]</text><text font-size="1.67" x="8.016" y="27.722" class="g">nold</text><text font-size="1.67" x="23.045999999999996" y="27.722" class="e">R-devel</text><text font-size="1.67" x="31.061999999999998" y="27.722" class="e">(2023-05-27</text><text font-size="1.67" x="43.086" y="27.722" class="e">r84465)</text><text font-size="1.67" x="61.12199999999999" y="27.722" class="e">Ubuntu</text><text font-size="1.67" x="68.136" y="27.722" class="e">22.04.2</text><text font-size="1.67" x="76.15199999999999" y="27.722" class="e">LTS</text><text font-size="1.67" x="1.002" y="29.893" class="e">9</text><text font-size="1.67" x="3.006" y="29.893" class="e">[CT]</text><text font-size="1.67" x="8.016" y="29.893" class="g">ubuntu-clang</text><text font-size="1.67" x="23.045999999999996" y="29.893" class="e">R-devel</text><text font-size="1.67" x="31.061999999999998" y="29.893" class="e">(2023-05-27</text><text font-size="1.67" x="43.086" y="29.893" class="e">r84465)</text><text font-size="1.67" x="61.12199999999999" y="29.893" class="e">Ubuntu</text><text font-size="1.67" x="68.136" y="29.893" class="e">22.04.2</text><text font-size="1.67" x="76.15199999999999" y="29.893" class="e">LTS</text><text font-size="1.67" x="0" y="32.064" class="e">10</text><text font-size="1.67" x="3.006" y="32.064" class="e">[CT]</text><text font-size="1.67" x="8.016" y="32.064" class="g">ubuntu-gcc12</text><text font-size="1.67" x="23.045999999999996" y="32.064" class="e">R-devel</text><text font-size="1.67" x="31.061999999999998" y="32.064" class="e">(2023-05-27</text><text font-size="1.67" x="43.086" y="32.064" class="e">r84465)</text><text font-size="1.67" x="61.12199999999999" y="32.064" class="e">Ubuntu</text><text font-size="1.67" x="68.136" y="32.064" class="e">22.04.2</text><text font-size="1.67" x="76.15199999999999" y="32.064" class="e">LTS</text><text font-size="1.67" x="0" y="34.235" class="e">11</text><text font-size="1.67" x="3.006" y="34.235" class="e">[CT]</text><text font-size="1.67" x="8.016" y="34.235" class="g">ubuntu-next</text><text font-size="1.67" x="23.045999999999996" y="34.235" class="e">R-4.3.0</text><text font-size="1.67" x="31.061999999999998" y="34.235" class="e">(patched)</text><text font-size="1.67" x="41.082" y="34.235" class="e">(2023-05-23</text><text font-size="1.67" x="53.105999999999995" y="34.235" class="e">r84465)</text><text font-size="1.67" x="61.12199999999999" y="34.235" class="e">Ubuntu</text><text font-size="1.67" x="68.136" y="34.235" class="e">22.04.2</text><text font-size="1.67" x="76.15199999999999" y="34.235" class="e">LTS</text><text font-size="1.67" x="0" y="36.406" class="e">12</text><text font-size="1.67" x="3.006" y="36.406" class="e">[CT]</text><text font-size="1.67" x="8.016" y="36.406" class="g">ubuntu-release</text><text font-size="1.67" x="23.045999999999996" y="36.406" class="e">R-4.3.0</text><text font-size="1.67" x="31.061999999999998" y="36.406" class="e">(2023-04-21)</text><text font-size="1.67" x="61.12199999999999" y="36.406" class="e">Ubuntu</text><text font-size="1.67" x="68.136" y="36.406" class="e">22.04.2</text><text font-size="1.67" x="76.15199999999999" y="36.406" class="e">LTS</text><text font-size="1.67" x="0" y="40.748000000000005" class="e">Selection</text><text font-size="1.67" x="10.02" y="40.748000000000005" class="e">(comma</text><text font-size="1.67" x="17.034" y="40.748000000000005" class="e">separated</text><text font-size="1.67" x="27.054" y="40.748000000000005" class="e">numbers,</text><text font-size="1.67" x="36.071999999999996" y="40.748000000000005" class="e">0</text><text font-size="1.67" x="38.07599999999999" y="40.748000000000005" class="e">to</text><text font-size="1.67" x="41.082" y="40.748000000000005" class="e">cancel):</text><text font-size="1.67" x="50.1" y="40.748000000000005" class="e">1,</text><text font-size="1.67" x="53.105999999999995" y="40.748000000000005" class="e">5</text><text font-size="1.67" x="0" y="45.09" class="d">✔</text><text font-size="1.67" x="2.004" y="45.09" class="e">Check</text><text font-size="1.67" x="8.016" y="45.09" class="e">started:</text><text font-size="1.67" x="17.034" y="45.09" class="e">linux,</text><text font-size="1.67" x="24.048" y="45.09" class="e">clang-asan</text><text font-size="1.67" x="35.06999999999999" y="45.09" class="e">(artless-songbird).</text><text font-size="1.67" x="2.004" y="47.261" class="e">See</text><text font-size="1.67" x="6.012" y="47.261" class="h">&lt;https://github.com/r-lib/cli/actions&gt;</text><text font-size="1.67" x="45.089999999999996" y="47.261" class="e">for</text><text font-size="1.67" x="49.098" y="47.261" class="e">live</text><text font-size="1.67" x="54.108" y="47.261" class="e">output!</text></svg></svg></g></svg></svg>