<svg xmlns="http://www.w3.org/2000/svg" xmlns:xlink="http://www.w3.org/1999/xlink" width="840" height="821.5600000000001"><rect width="840" height="821.5600000000001" rx="0" ry="0" class="a"></rect><svg height="781.5600000000001" viewBox="0 0 80 78.156" width="800" x="20" xmlns="http://www.w3.org/2000/svg" xmlns:xlink="http://www.w3.org/1999/xlink" y="20"><style>.a{fill:rgb(22,27,34)}.b{font-family:'Fira Code',Monaco,Consolas,Menlo,'Bitstream Vera Sans Mono','Powerline Symbols',monospace}.c{fill:transparent}.d{fill:rgb(133,153,0);white-space:pre}.e{fill:rgb(201,209,217);white-space:pre}.f{fill:rgb(38,139,210);white-space:pre}.g{fill:rgb(38,139,210);font-weight:bold;white-space:pre}.h{fill:rgb(38,139,210);font-style:italic;white-space:pre}</style><g font-family="&#x27;Fira Code&#x27;,Monaco,Consolas,Menlo,&#x27;Bitstream Vera Sans Mono&#x27;,&#x27;Powerline Symbols&#x27;,monospace" font-size="1.67" class="b"><defs><symbol id="a"><rect height="36" width="80" x="0" y="0" class="c"></rect></symbol></defs><rect height="78.156" width="80" class="a"></rect><svg x="0" y="0" width="80"><svg x="0"><use xlink:href="#a"></use><text font-size="1.67" x="0" y="1.67" class="d">✔</text><text font-size="1.67" x="2.004" y="1.67" class="e">Found</text><text font-size="1.67" x="8.016" y="1.67" class="e">git</text><text font-size="1.67" x="12.024" y="1.67" class="e">repository</text><text font-size="1.67" x="23.045999999999996" y="1.67" class="e">at</text><text font-size="1.67" x="26.052" y="1.67" class="f">/private/tmp/cli</text><text font-size="1.67" x="42.083999999999996" y="1.67" class="e">.</text><text font-size="1.67" x="0" y="3.8409999999999997" class="d">✔</text><text font-size="1.67" x="2.004" y="3.8409999999999997" class="e">Found</text><text font-size="1.67" x="8.016" y="3.8409999999999997" class="e">GitHub</text><text font-size="1.67" x="15.029999999999998" y="3.8409999999999997" class="e">PAT.</text><text font-size="1.67" x="0" y="8.183" class="e">Available</text><text font-size="1.67" x="10.02" y="8.183" class="e">platforms</text><text font-size="1.67" x="20.04" y="8.183" class="e">(see</text><text font-size="1.67" x="25.05" y="8.183" class="e">`rhub::rhub_platforms()`</text><text font-size="1.67" x="50.1" y="8.183" class="e">for</text><text font-size="1.67" x="54.108" y="8.183" class="e">details):</text><text font-size="1.67" x="1.002" y="12.525" class="e">1</text><text font-size="1.67" x="3.006" y="12.525" class="e">[VM]</text><text font-size="1.67" x="8.016" y="12.525" class="g">linux</text><text font-size="1.67" x="23.045999999999996" y="12.525" class="e">R-*</text><text font-size="1.67" x="27.054" y="12.525" class="e">(any</text><text font-size="1.67" x="32.064" y="12.525" class="e">version)</text><text font-size="1.67" x="61.12199999999999" y="12.525" class="e">ubuntu-latest</text><text font-size="1.67" x="75.14999999999999" y="12.525" class="e">on</text><text font-size="1.67" x="78.15599999999999" y="12.525" class="e">G…</text><text font-size="1.67" x="1.002" y="14.696" class="e">2</text><text font-size="1.67" x="3.006" y="14.696" class="e">[VM]</text><text font-size="1.67" x="8.016" y="14.696" class="g">macos</text><text font-size="1.67" x="23.045999999999996" y="14.696" class="e">R-*</text><text font-size="1.67" x="27.054" y="14.696" class="e">(any</text><text font-size="1.67" x="32.064" y="14.696" class="e">version)</text><text font-size="1.67" x="61.12199999999999" y="14.696" class="e">macos-13</text><text font-size="1.67" x="70.13999999999999" y="14.696" class="e">on</text><text font-size="1.67" x="73.146" y="14.696" class="e">GitHub</text><text font-size="1.67" x="1.002" y="16.866999999999997" class="e">3</text><text font-size="1.67" x="3.006" y="16.866999999999997" class="e">[VM]</text><text font-size="1.67" x="8.016" y="16.866999999999997" class="g">macos-arm64</text><text font-size="1.67" x="23.045999999999996" y="16.866999999999997" class="e">R-*</text><text font-size="1.67" x="27.054" y="16.866999999999997" class="e">(any</text><text font-size="1.67" x="32.064" y="16.866999999999997" class="e">version)</text><text font-size="1.67" x="61.12199999999999" y="16.866999999999997" class="e">macos-latest</text><text font-size="1.67" x="74.148" y="16.866999999999997" class="e">on</text><text font-size="1.67" x="77.154" y="16.866999999999997" class="e">Gi…</text><text font-size="1.67" x="1.002" y="19.037999999999997" class="e">4</text><text font-size="1.67" x="3.006" y="19.037999999999997" class="e">[VM]</text><text font-size="1.67" x="8.016" y="19.037999999999997" class="g">windows</text><text font-size="1.67" x="23.045999999999996" y="19.037999999999997" class="e">R-*</text><text font-size="1.67" x="27.054" y="19.037999999999997" class="e">(any</text><text font-size="1.67" x="32.064" y="19.037999999999997" class="e">version)</text><text font-size="1.67" x="61.12199999999999" y="19.037999999999997" class="e">windows-latest</text><text font-size="1.67" x="76.15199999999999" y="19.037999999999997" class="e">on</text><text font-size="1.67" x="79.158" y="19.037999999999997" class="e">…</text><text font-size="1.67" x="1.002" y="21.209000000000003" class="e">5</text><text font-size="1.67" x="3.006" y="21.209000000000003" class="e">[CT]</text><text font-size="1.67" x="8.016" y="21.209000000000003" class="g">atlas</text><text font-size="1.67" x="23.045999999999996" y="21.209000000000003" class="e">R-devel</text><text font-size="1.67" x="31.061999999999998" y="21.209000000000003" class="e">(2024-11-23</text><text font-size="1.67" x="43.086" y="21.209000000000003" class="e">r87366)</text><text font-size="1.67" x="61.12199999999999" y="21.209000000000003" class="e">Fedora</text><text font-size="1.67" x="68.136" y="21.209000000000003" class="e">Linux</text><text font-size="1.67" x="74.148" y="21.209000000000003" class="e">38</text><text font-size="1.67" x="77.154" y="21.209000000000003" class="e">(C…</text><text font-size="1.67" x="1.002" y="23.380000000000003" class="e">6</text><text font-size="1.67" x="3.006" y="23.380000000000003" class="e">[CT]</text><text font-size="1.67" x="8.016" y="23.380000000000003" class="g">c23</text><text font-size="1.67" x="23.045999999999996" y="23.380000000000003" class="e">R-devel</text><text font-size="1.67" x="31.061999999999998" y="23.380000000000003" class="e">(2024-11-22</text><text font-size="1.67" x="43.086" y="23.380000000000003" class="e">r87365)</text><text font-size="1.67" x="61.12199999999999" y="23.380000000000003" class="e">Ubuntu</text><text font-size="1.67" x="68.136" y="23.380000000000003" class="e">22.04.5</text><text font-size="1.67" x="76.15199999999999" y="23.380000000000003" class="e">LTS</text><text font-size="1.67" x="1.002" y="25.550999999999995" class="e">7</text><text font-size="1.67" x="3.006" y="25.550999999999995" class="e">[CT]</text><text font-size="1.67" x="8.016" y="25.550999999999995" class="g">clang-asan</text><text font-size="1.67" x="23.045999999999996" y="25.550999999999995" class="e">R-devel</text><text font-size="1.67" x="31.061999999999998" y="25.550999999999995" class="e">(2024-11-23</text><text font-size="1.67" x="43.086" y="25.550999999999995" class="e">r87366)</text><text font-size="1.67" x="61.12199999999999" y="25.550999999999995" class="e">Ubuntu</text><text font-size="1.67" x="68.136" y="25.550999999999995" class="e">22.04.5</text><text font-size="1.67" x="76.15199999999999" y="25.550999999999995" class="e">LTS</text><text font-size="1.67" x="1.002" y="27.722" class="e">8</text><text font-size="1.67" x="3.006" y="27.722" class="e">[CT]</text><text font-size="1.67" x="8.016" y="27.722" class="g">clang16</text><text font-size="1.67" x="23.045999999999996" y="27.722" class="e">R-devel</text><text font-size="1.67" x="31.061999999999998" y="27.722" class="e">(2024-11-22</text><text font-size="1.67" x="43.086" y="27.722" class="e">r87365)</text><text font-size="1.67" x="61.12199999999999" y="27.722" class="e">Ubuntu</text><text font-size="1.67" x="68.136" y="27.722" class="e">22.04.5</text><text font-size="1.67" x="76.15199999999999" y="27.722" class="e">LTS</text><text font-size="1.67" x="1.002" y="29.893" class="e">9</text><text font-size="1.67" x="3.006" y="29.893" class="e">[CT]</text><text font-size="1.67" x="8.016" y="29.893" class="g">clang17</text><text font-size="1.67" x="23.045999999999996" y="29.893" class="e">R-devel</text><text font-size="1.67" x="31.061999999999998" y="29.893" class="e">(2024-11-22</text><text font-size="1.67" x="43.086" y="29.893" class="e">r87365)</text><text font-size="1.67" x="61.12199999999999" y="29.893" class="e">Ubuntu</text><text font-size="1.67" x="68.136" y="29.893" class="e">22.04.5</text><text font-size="1.67" x="76.15199999999999" y="29.893" class="e">LTS</text><text font-size="1.67" x="0" y="32.064" class="e">10</text><text font-size="1.67" x="3.006" y="32.064" class="e">[CT]</text><text font-size="1.67" x="8.016" y="32.064" class="g">clang18</text><text font-size="1.67" x="23.045999999999996" y="32.064" class="e">R-devel</text><text font-size="1.67" x="31.061999999999998" y="32.064" class="e">(2024-11-22</text><text font-size="1.67" x="43.086" y="32.064" class="e">r87365)</text><text font-size="1.67" x="61.12199999999999" y="32.064" class="e">Ubuntu</text><text font-size="1.67" x="68.136" y="32.064" class="e">22.04.5</text><text font-size="1.67" x="76.15199999999999" y="32.064" class="e">LTS</text><text font-size="1.67" x="0" y="34.235" class="e">11</text><text font-size="1.67" x="3.006" y="34.235" class="e">[CT]</text><text font-size="1.67" x="8.016" y="34.235" class="g">clang19</text><text font-size="1.67" x="23.045999999999996" y="34.235" class="e">R-devel</text><text font-size="1.67" x="31.061999999999998" y="34.235" class="e">(2024-11-22</text><text font-size="1.67" x="43.086" y="34.235" class="e">r87365)</text><text font-size="1.67" x="61.12199999999999" y="34.235" class="e">Ubuntu</text><text font-size="1.67" x="68.136" y="34.235" class="e">22.04.5</text><text font-size="1.67" x="76.15199999999999" y="34.235" class="e">LTS</text><text font-size="1.67" x="0" y="36.406" class="e">12</text><text font-size="1.67" x="3.006" y="36.406" class="e">[CT]</text><text font-size="1.67" x="8.016" y="36.406" class="g">clang20</text><text font-size="1.67" x="23.045999999999996" y="36.406" class="e">R-devel</text><text font-size="1.67" x="31.061999999999998" y="36.406" class="e">(2024-10-09</text><text font-size="1.67" x="43.086" y="36.406" class="e">r87215)</text><text font-size="1.67" x="61.12199999999999" y="36.406" class="e">Ubuntu</text><text font-size="1.67" x="68.136" y="36.406" class="e">22.04.5</text><text font-size="1.67" x="76.15199999999999" y="36.406" class="e">LTS</text><text font-size="1.67" x="0" y="38.577000000000005" class="e">13</text><text font-size="1.67" x="3.006" y="38.577000000000005" class="e">[CT]</text><text font-size="1.67" x="8.016" y="38.577000000000005" class="g">donttest</text><text font-size="1.67" x="23.045999999999996" y="38.577000000000005" class="e">R-devel</text><text font-size="1.67" x="31.061999999999998" y="38.577000000000005" class="e">(2024-11-22</text><text font-size="1.67" x="43.086" y="38.577000000000005" class="e">r87365)</text><text font-size="1.67" x="61.12199999999999" y="38.577000000000005" class="e">Ubuntu</text><text font-size="1.67" x="68.136" y="38.577000000000005" class="e">22.04.5</text><text font-size="1.67" x="76.15199999999999" y="38.577000000000005" class="e">LTS</text><text font-size="1.67" x="0" y="40.748000000000005" class="e">14</text><text font-size="1.67" x="3.006" y="40.748000000000005" class="e">[CT]</text><text font-size="1.67" x="8.016" y="40.748000000000005" class="g">gcc13</text><text font-size="1.67" x="23.045999999999996" y="40.748000000000005" class="e">R-devel</text><text font-size="1.67" x="31.061999999999998" y="40.748000000000005" class="e">(2024-11-23</text><text font-size="1.67" x="43.086" y="40.748000000000005" class="e">r87366)</text><text font-size="1.67" x="61.12199999999999" y="40.748000000000005" class="e">Fedora</text><text font-size="1.67" x="68.136" y="40.748000000000005" class="e">Linux</text><text font-size="1.67" x="74.148" y="40.748000000000005" class="e">38</text><text font-size="1.67" x="77.154" y="40.748000000000005" class="e">(C…</text><text font-size="1.67" x="0" y="42.919" class="e">15</text><text font-size="1.67" x="3.006" y="42.919" class="e">[CT]</text><text font-size="1.67" x="8.016" y="42.919" class="g">gcc14</text><text font-size="1.67" x="23.045999999999996" y="42.919" class="e">R-devel</text><text font-size="1.67" x="31.061999999999998" y="42.919" class="e">(2024-11-23</text><text font-size="1.67" x="43.086" y="42.919" class="e">r87366)</text><text font-size="1.67" x="61.12199999999999" y="42.919" class="e">Fedora</text><text font-size="1.67" x="68.136" y="42.919" class="e">Linux</text><text font-size="1.67" x="74.148" y="42.919" class="e">40</text><text font-size="1.67" x="77.154" y="42.919" class="e">(C…</text><text font-size="1.67" x="0" y="45.09" class="e">16</text><text font-size="1.67" x="3.006" y="45.09" class="e">[CT]</text><text font-size="1.67" x="8.016" y="45.09" class="g">intel</text><text font-size="1.67" x="23.045999999999996" y="45.09" class="e">R-devel</text><text font-size="1.67" x="31.061999999999998" y="45.09" class="e">(2024-11-23</text><text font-size="1.67" x="43.086" y="45.09" class="e">r87366)</text><text font-size="1.67" x="61.12199999999999" y="45.09" class="e">Fedora</text><text font-size="1.67" x="68.136" y="45.09" class="e">Linux</text><text font-size="1.67" x="74.148" y="45.09" class="e">38</text><text font-size="1.67" x="77.154" y="45.09" class="e">(C…</text><text font-size="1.67" x="0" y="47.261" class="e">17</text><text font-size="1.67" x="3.006" y="47.261" class="e">[CT]</text><text font-size="1.67" x="8.016" y="47.261" class="g">mkl</text><text font-size="1.67" x="23.045999999999996" y="47.261" class="e">R-devel</text><text font-size="1.67" x="31.061999999999998" y="47.261" class="e">(2024-11-23</text><text font-size="1.67" x="43.086" y="47.261" class="e">r87366)</text><text font-size="1.67" x="61.12199999999999" y="47.261" class="e">Fedora</text><text font-size="1.67" x="68.136" y="47.261" class="e">Linux</text><text font-size="1.67" x="74.148" y="47.261" class="e">38</text><text font-size="1.67" x="77.154" y="47.261" class="e">(C…</text><text font-size="1.67" x="0" y="49.431999999999995" class="e">18</text><text font-size="1.67" x="3.006" y="49.431999999999995" class="e">[CT]</text><text font-size="1.67" x="8.016" y="49.431999999999995" class="g">nold</text><text font-size="1.67" x="23.045999999999996" y="49.431999999999995" class="e">R-devel</text><text font-size="1.67" x="31.061999999999998" y="49.431999999999995" class="e">(2024-11-23</text><text font-size="1.67" x="43.086" y="49.431999999999995" class="e">r87366)</text><text font-size="1.67" x="61.12199999999999" y="49.431999999999995" class="e">Ubuntu</text><text font-size="1.67" x="68.136" y="49.431999999999995" class="e">22.04.5</text><text font-size="1.67" x="76.15199999999999" y="49.431999999999995" class="e">LTS</text><text font-size="1.67" x="0" y="51.603" class="e">19</text><text font-size="1.67" x="3.006" y="51.603" class="e">[CT]</text><text font-size="1.67" x="8.016" y="51.603" class="g">noremap</text><text font-size="1.67" x="23.045999999999996" y="51.603" class="e">R-devel</text><text font-size="1.67" x="31.061999999999998" y="51.603" class="e">(2024-11-22</text><text font-size="1.67" x="43.086" y="51.603" class="e">r87365)</text><text font-size="1.67" x="61.12199999999999" y="51.603" class="e">Ubuntu</text><text font-size="1.67" x="68.136" y="51.603" class="e">22.04.5</text><text font-size="1.67" x="76.15199999999999" y="51.603" class="e">LTS</text><text font-size="1.67" x="0" y="53.774" class="e">20</text><text font-size="1.67" x="3.006" y="53.774" class="e">[CT]</text><text font-size="1.67" x="8.016" y="53.774" class="g">nosuggests</text><text font-size="1.67" x="23.045999999999996" y="53.774" class="e">R-devel</text><text font-size="1.67" x="31.061999999999998" y="53.774" class="e">(2024-11-23</text><text font-size="1.67" x="43.086" y="53.774" class="e">r87366)</text><text font-size="1.67" x="61.12199999999999" y="53.774" class="e">Fedora</text><text font-size="1.67" x="68.136" y="53.774" class="e">Linux</text><text font-size="1.67" x="74.148" y="53.774" class="e">38</text><text font-size="1.67" x="77.154" y="53.774" class="e">(C…</text><text font-size="1.67" x="0" y="55.945" class="e">21</text><text font-size="1.67" x="3.006" y="55.945" class="e">[CT]</text><text font-size="1.67" x="8.016" y="55.945" class="g">rchk</text><text font-size="1.67" x="23.045999999999996" y="55.945" class="e">R-devel</text><text font-size="1.67" x="31.061999999999998" y="55.945" class="e">(2024-11-23</text><text font-size="1.67" x="43.086" y="55.945" class="e">r87366)</text><text font-size="1.67" x="61.12199999999999" y="55.945" class="e">Ubuntu</text><text font-size="1.67" x="68.136" y="55.945" class="e">22.04.5</text><text font-size="1.67" x="76.15199999999999" y="55.945" class="e">LTS</text><text font-size="1.67" x="0" y="58.11600000000001" class="e">22</text><text font-size="1.67" x="3.006" y="58.11600000000001" class="e">[CT]</text><text font-size="1.67" x="8.016" y="58.11600000000001" class="g">ubuntu-clang</text><text font-size="1.67" x="23.045999999999996" y="58.11600000000001" class="e">R-devel</text><text font-size="1.67" x="31.061999999999998" y="58.11600000000001" class="e">(2024-11-23</text><text font-size="1.67" x="43.086" y="58.11600000000001" class="e">r87366)</text><text font-size="1.67" x="61.12199999999999" y="58.11600000000001" class="e">Ubuntu</text><text font-size="1.67" x="68.136" y="58.11600000000001" class="e">22.04.5</text><text font-size="1.67" x="76.15199999999999" y="58.11600000000001" class="e">LTS</text><text font-size="1.67" x="0" y="60.287" class="e">23</text><text font-size="1.67" x="3.006" y="60.287" class="e">[CT]</text><text font-size="1.67" x="8.016" y="60.287" class="g">ubuntu-gcc12</text><text font-size="1.67" x="23.045999999999996" y="60.287" class="e">R-devel</text><text font-size="1.67" x="31.061999999999998" y="60.287" class="e">(2024-11-23</text><text font-size="1.67" x="43.086" y="60.287" class="e">r87366)</text><text font-size="1.67" x="61.12199999999999" y="60.287" class="e">Ubuntu</text><text font-size="1.67" x="68.136" y="60.287" class="e">22.04.5</text><text font-size="1.67" x="76.15199999999999" y="60.287" class="e">LTS</text><text font-size="1.67" x="0" y="62.458" class="e">24</text><text font-size="1.67" x="3.006" y="62.458" class="e">[CT]</text><text font-size="1.67" x="8.016" y="62.458" class="g">ubuntu-next</text><text font-size="1.67" x="23.045999999999996" y="62.458" class="e">R-4.4.2</text><text font-size="1.67" x="31.061999999999998" y="62.458" class="e">(patched)</text><text font-size="1.67" x="41.082" y="62.458" class="e">(2024-11-21</text><text font-size="1.67" x="53.105999999999995" y="62.458" class="e">r87365)</text><text font-size="1.67" x="61.12199999999999" y="62.458" class="e">Ubuntu</text><text font-size="1.67" x="68.136" y="62.458" class="e">22.04.5</text><text font-size="1.67" x="76.15199999999999" y="62.458" class="e">LTS</text><text font-size="1.67" x="0" y="64.629" class="e">25</text><text font-size="1.67" x="3.006" y="64.629" class="e">[CT]</text><text font-size="1.67" x="8.016" y="64.629" class="g">ubuntu-release</text><text font-size="1.67" x="23.045999999999996" y="64.629" class="e">R-4.4.2</text><text font-size="1.67" x="31.061999999999998" y="64.629" class="e">(2024-10-31)</text><text font-size="1.67" x="61.12199999999999" y="64.629" class="e">Ubuntu</text><text font-size="1.67" x="68.136" y="64.629" class="e">22.04.5</text><text font-size="1.67" x="76.15199999999999" y="64.629" class="e">LTS</text><text font-size="1.67" x="0" y="66.8" class="e">26</text><text font-size="1.67" x="3.006" y="66.8" class="e">[CT]</text><text font-size="1.67" x="8.016" y="66.8" class="g">valgrind</text><text font-size="1.67" x="23.045999999999996" y="66.8" class="e">R-devel</text><text font-size="1.67" x="31.061999999999998" y="66.8" class="e">(2024-11-23</text><text font-size="1.67" x="43.086" y="66.8" class="e">r87366)</text><text font-size="1.67" x="61.12199999999999" y="66.8" class="e">Fedora</text><text font-size="1.67" x="68.136" y="66.8" class="e">Linux</text><text font-size="1.67" x="74.148" y="66.8" class="e">38</text><text font-size="1.67" x="77.154" y="66.8" class="e">(C…</text><text font-size="1.67" x="0" y="71.142" class="e">Selection</text><text font-size="1.67" x="10.02" y="71.142" class="e">(comma</text><text font-size="1.67" x="17.034" y="71.142" class="e">separated</text><text font-size="1.67" x="27.054" y="71.142" class="e">numbers,</text><text font-size="1.67" x="36.071999999999996" y="71.142" class="e">0</text><text font-size="1.67" x="38.07599999999999" y="71.142" class="e">to</text><text font-size="1.67" x="41.082" y="71.142" class="e">cancel):</text><text font-size="1.67" x="50.1" y="71.142" class="e">1,</text><text font-size="1.67" x="53.105999999999995" y="71.142" class="e">5</text><text font-size="1.67" x="0" y="75.48400000000001" class="d">✔</text><text font-size="1.67" x="2.004" y="75.48400000000001" class="e">Check</text><text font-size="1.67" x="8.016" y="75.48400000000001" class="e">started:</text><text font-size="1.67" x="17.034" y="75.48400000000001" class="e">linux,</text><text font-size="1.67" x="24.048" y="75.48400000000001" class="e">atlas</text><text font-size="1.67" x="30.059999999999995" y="75.48400000000001" class="e">(neat-gallowaycow).</text><text font-size="1.67" x="2.004" y="77.655" class="e">See</text><text font-size="1.67" x="6.012" y="77.655" class="h">&lt;https://github.com/r-lib/cli/actions&gt;</text><text font-size="1.67" x="45.089999999999996" y="77.655" class="e">for</text><text font-size="1.67" x="49.098" y="77.655" class="e">live</text><text font-size="1.67" x="54.108" y="77.655" class="e">output!</text></svg></svg></g></svg></svg>