<svg xmlns="http://www.w3.org/2000/svg" xmlns:xlink="http://www.w3.org/1999/xlink" width="840" height="191.97"><rect width="840" height="191.97" rx="0" ry="0" class="a"></rect><svg height="151.97" viewBox="0 0 80 15.197" width="800" x="20" xmlns="http://www.w3.org/2000/svg" xmlns:xlink="http://www.w3.org/1999/xlink" y="20"><style>.a{fill:rgb(22,27,34)}.b{font-family:'Fira Code',Monaco,Consolas,Menlo,'Bitstream Vera Sans Mono','Powerline Symbols',monospace}.c{fill:transparent}.d{fill:rgb(133,153,0);white-space:pre}.e{fill:rgb(201,209,217);white-space:pre}.f{fill:rgb(38,139,210);white-space:pre}.g{fill:rgb(38,139,210);font-style:italic;white-space:pre}</style><g font-family="&#x27;Fira Code&#x27;,Monaco,Consolas,Menlo,&#x27;Bitstream Vera Sans Mono&#x27;,&#x27;Powerline Symbols&#x27;,monospace" font-size="1.67" class="b"><defs><symbol id="a"><rect height="7" width="80" x="0" y="0" class="c"></rect></symbol></defs><rect height="15.197" width="80" class="a"></rect><svg x="0" y="0" width="80"><svg x="0"><use xlink:href="#a"></use><text font-size="1.67" x="0" y="1.67" class="d">✔</text><text font-size="1.67" x="2.004" y="1.67" class="e">Found</text><text font-size="1.67" x="8.016" y="1.67" class="e">R</text><text font-size="1.67" x="10.02" y="1.67" class="e">package</text><text font-size="1.67" x="18.035999999999998" y="1.67" class="e">at</text><text font-size="1.67" x="21.041999999999998" y="1.67" class="f">/private/tmp/cli</text><text font-size="1.67" x="37.074" y="1.67" class="e">.</text><text font-size="1.67" x="0" y="3.8409999999999997" class="d">✔</text><text font-size="1.67" x="2.004" y="3.8409999999999997" class="e">Found</text><text font-size="1.67" x="8.016" y="3.8409999999999997" class="e">git</text><text font-size="1.67" x="12.024" y="3.8409999999999997" class="e">repository</text><text font-size="1.67" x="23.045999999999996" y="3.8409999999999997" class="e">at</text><text font-size="1.67" x="26.052" y="3.8409999999999997" class="f">/private/tmp/cli</text><text font-size="1.67" x="42.083999999999996" y="3.8409999999999997" class="e">.</text><text font-size="1.67" x="0" y="6.012" class="d">✔</text><text font-size="1.67" x="2.004" y="6.012" class="e">Found</text><text font-size="1.67" x="8.016" y="6.012" class="e">GitHub</text><text font-size="1.67" x="15.029999999999998" y="6.012" class="e">PAT.</text><text font-size="1.67" x="0" y="8.183" class="d">✔</text><text font-size="1.67" x="2.004" y="8.183" class="e">Found</text><text font-size="1.67" x="8.016" y="8.183" class="e">repository</text><text font-size="1.67" x="19.037999999999997" y="8.183" class="e">on</text><text font-size="1.67" x="22.043999999999997" y="8.183" class="e">GitHub</text><text font-size="1.67" x="29.058" y="8.183" class="e">at</text><text font-size="1.67" x="32.064" y="8.183" class="g">&lt;https://github.com/r-lib/cli&gt;</text><text font-size="1.67" x="62.123999999999995" y="8.183" class="e">.</text><text font-size="1.67" x="0" y="10.354" class="d">✔</text><text font-size="1.67" x="2.004" y="10.354" class="e">GitHub</text><text font-size="1.67" x="9.017999999999999" y="10.354" class="e">PAT</text><text font-size="1.67" x="13.026" y="10.354" class="e">has</text><text font-size="1.67" x="17.034" y="10.354" class="e">the</text><text font-size="1.67" x="21.041999999999998" y="10.354" class="e">right</text><text font-size="1.67" x="27.054" y="10.354" class="e">scopes.</text><text font-size="1.67" x="0" y="12.525" class="d">✔</text><text font-size="1.67" x="2.004" y="12.525" class="e">Found</text><text font-size="1.67" x="8.016" y="12.525" class="e">R-hub</text><text font-size="1.67" x="14.027999999999999" y="12.525" class="e">workflow</text><text font-size="1.67" x="23.045999999999996" y="12.525" class="e">in</text><text font-size="1.67" x="26.052" y="12.525" class="e">default</text><text font-size="1.67" x="34.068" y="12.525" class="e">branch,</text><text font-size="1.67" x="42.083999999999996" y="12.525" class="e">and</text><text font-size="1.67" x="46.09199999999999" y="12.525" class="e">it</text><text font-size="1.67" x="49.098" y="12.525" class="e">is</text><text font-size="1.67" x="52.104" y="12.525" class="e">active.</text><text font-size="1.67" x="0" y="14.696" class="e">→</text><text font-size="1.67" x="2.004" y="14.696" class="e">WOOT!</text><text font-size="1.67" x="8.016" y="14.696" class="e">You</text><text font-size="1.67" x="12.024" y="14.696" class="e">are</text><text font-size="1.67" x="16.032" y="14.696" class="e">ready</text><text font-size="1.67" x="22.043999999999997" y="14.696" class="e">to</text><text font-size="1.67" x="25.05" y="14.696" class="e">run</text><text font-size="1.67" x="29.058" y="14.696" class="e">`rhub::rhub_check()`</text><text font-size="1.67" x="50.1" y="14.696" class="e">on</text><text font-size="1.67" x="53.105999999999995" y="14.696" class="e">this</text><text font-size="1.67" x="58.116" y="14.696" class="e">package.</text></svg></svg></g></svg></svg>